<?xml version="1.0" encoding="UTF-8" standalone="no"?>
<!DOCTYPE svg PUBLIC "-//W3C//DTD SVG 1.1//EN" "http://www.w3.org/Graphics/SVG/1.1/DTD/svg11.dtd">
<svg width="100%" height="100%" viewBox="0 0 709 327" version="1.1" xmlns="http://www.w3.org/2000/svg" xmlns:xlink="http://www.w3.org/1999/xlink" xml:space="preserve" xmlns:serif="http://www.serif.com/" style="fill-rule:evenodd;clip-rule:evenodd;stroke-linejoin:round;stroke-miterlimit:1.41421;">
    <g transform="matrix(1,0,0,1,-1296.4,0)">
        <g id="Artboard2" transform="matrix(1,0,0,1,1060.11,-427.547)">
            <rect x="236.29" y="427.547" width="708.522" height="326.009" style="fill:none;"/>
            <clipPath id="_clip1">
                <rect x="236.29" y="427.547" width="708.522" height="326.009"/>
            </clipPath>
            <g clip-path="url(#_clip1)">
                <g id="path137722" transform="matrix(12.5239,0,0,12.5239,-1698.39,-11864.5)">
                    <path d="M154.502,1007.16C154.502,1007.55 156.17,1007.52 157.837,1007.52C164.116,1007.52 170.362,1006.97 176.281,1005.56C184.162,1003.69 186.289,1000.92 190.702,998.43C199.696,993.361 211.076,994.244 211.076,993.394C211.076,993.165 210.912,993.099 207.741,992.281C207.446,991.072 205.876,990.288 204.306,990.288C200.612,990.288 194.56,994.571 189.132,994.571C188.544,994.571 187.987,994.505 187.399,994.407C185.209,990.32 180.205,986.689 174.025,985.904C170.46,985.447 167.91,985.022 165.882,984.663C158.72,983.354 156.856,981.49 156.039,981.49C155.875,981.49 155.81,981.654 155.81,981.785C155.81,983.158 158.262,987.017 162.154,991.367C164.705,994.211 168.922,998.331 168.922,1000.29C168.922,1001.37 166.536,1002.68 161.99,1004.61C156.694,1006.87 154.502,1006.83 154.502,1007.16" style="fill:rgb(226,156,22);fill-rule:nonzero;"/>
                </g>
            </g>
        </g>
    </g>
</svg>
