<?xml version="1.0" encoding="utf-8"?>
<!-- Generator: Adobe Illustrator 23.1.1, SVG Export Plug-In . SVG Version: 6.00 Build 0)  -->
<svg version="1.1" id="Layer_1" xmlns="http://www.w3.org/2000/svg" xmlns:xlink="http://www.w3.org/1999/xlink" x="0px" y="0px"
	 viewBox="0 0 238.67 101.33" style="enable-background:new 0 0 238.67 101.33;" xml:space="preserve">
<style type="text/css">
	.st0{fill:#FFFFFF;}
	.st1{fill:#23A636;}
	.st2{fill:#D6031D;}
	.st3{font-family:'CaviarDreams-Bold';}
	.st4{font-size:46px;}
</style>
<rect x="-79.67" y="-47" class="st0" width="400" height="200"/>
<path class="st1" d="M34.54,79.09c33.82-8.35,45.69-31.2,47.45-35c-0.67-2.47-1.59-4.84-2.72-7.07
	c-5.28,7.16-11.39,13.38-18.26,18.55C53,61.6,43.96,66.23,34.14,69.33c-7.59,2.39-14.44,3.49-19.7,3.98
	c6.54,10.62,18.28,17.71,31.67,17.71c19.95,0,36.22-15.71,37.13-35.43C61.16,83.9,34.54,79.09,34.54,79.09z"/>
<path class="st2" d="M75.64,31.27c-0.01-0.01-0.02-0.03-0.03-0.04c2.29-3.67,7.78-13.9,7.04-26.89l-19.11,12.1
	c0,0,11.45-4.71,13.33-5.73c0,0-4.56,9.33-8.38,15.22c-14,20.51-41.24,27.97-41.24,27.97c20.23-9.73,31.78-24.8,36.74-32.66
	c-5.3-2.91-11.39-4.57-17.87-4.57c-20.53,0-37.17,16.64-37.17,37.17c0,4.71,0.88,9.21,2.47,13.35c5.15-0.32,12.66-1.28,21.07-3.96
	c17.36-5.53,31.49-15.78,42.15-30.55c0.01-0.02,0.1-0.13,0.24-0.34C75.13,31.99,75.39,31.63,75.64,31.27z"/>
<g>
	<path d="M123.52,39.27v3.95h-22.7c-1.11,0-2.03,0.36-2.76,1.09c-0.73,0.73-1.09,1.64-1.09,2.76v16.47c0,1.11,0.36,2.03,1.09,2.76
		c0.73,0.73,1.64,1.09,2.76,1.09h16.63c1.11,0,2.04-0.37,2.77-1.1c0.73-0.73,1.1-1.65,1.1-2.74v-6.95h-8.8v-3.95h13.23v11.51
		c0,2-0.71,3.7-2.13,5.1c-1.42,1.41-3.13,2.11-5.13,2.11h-18.7c-2,0-3.7-0.7-5.12-2.11c-1.41-1.41-2.12-3.11-2.12-5.1V46.51
		c0-2,0.71-3.7,2.12-5.12c1.41-1.41,3.12-2.12,5.12-2.12H123.52z"/>
	<path d="M128.93,39.27h4.24v32.09h-4.24V39.27z"/>
	<path d="M168.95,39.27v8.41h12.78c1.94,0,3.6,0.61,4.97,1.84c1.37,1.23,2.05,2.71,2.05,4.44v11.11c0,1.73-0.68,3.21-2.05,4.44
		c-1.37,1.23-3.03,1.84-4.97,1.84h-17.05V39.27H168.95z M168.95,51.55v15.96h11.8c1.08,0,1.97-0.32,2.68-0.95
		c0.71-0.64,1.06-1.43,1.06-2.39v-9.28c0-0.92-0.32-1.71-0.96-2.39c-0.64-0.67-1.43-1.01-2.39-1.01
		C179.94,51.49,175.88,51.51,168.95,51.55z"/>
	<path d="M196.18,39.27v3.85h-4.24v-3.85H196.18z M196.18,47.67v23.68h-4.24V47.67H196.18z"/>
	<path d="M199.89,39.27h4.24v32.09h-4.24V39.27z"/>
	<text transform="matrix(0.9941 0 0 1 133.1741 71.1924)" class="st3 st4">o</text>
	<text transform="matrix(0.9941 0 0 1 204.137 71.3545)" class="st3 st4">o</text>
</g>
</svg>
