<?xml version="1.0" encoding="UTF-8" standalone="no"?><!DOCTYPE svg PUBLIC "-//W3C//DTD SVG 1.1//EN" "http://www.w3.org/Graphics/SVG/1.1/DTD/svg11.dtd"><svg width="100%" height="100%" viewBox="0 0 783 114" version="1.1" xmlns="http://www.w3.org/2000/svg" xmlns:xlink="http://www.w3.org/1999/xlink" xml:space="preserve" xmlns:serif="http://www.serif.com/" style="fill-rule:evenodd;clip-rule:evenodd;stroke-linejoin:round;stroke-miterlimit:1.41421;"><rect id="Artboard1" x="0" y="0" width="782.776" height="113.766" style="fill:none;"/><g id="logo"><g><clipPath id="_clip1"><path d="M56.437,113.386c31.169,0 56.437,-25.382 56.437,-56.693c0,-3.641 -1.636,-13.146 -4.908,-20.541c-3.272,-7.395 11.451,-23.006 11.451,-23.006l-28.627,0l8.997,-13.146l-43.35,0c-31.169,0 -56.437,25.382 -56.437,56.693c0,31.311 25.268,56.693 56.437,56.693Z"/></clipPath><g clip-path="url(#_clip1)"><g><clipPath id="_clip2"><path d="M56.437,113.386c31.169,0 50.066,-25.203 54.009,-40.431l-63.081,-41.715l19.854,-31.24l-10.782,0c-31.169,0 -56.437,25.382 -56.437,56.693c0,31.311 25.268,56.693 56.437,56.693Z"/></clipPath><g clip-path="url(#_clip2)"><rect x="-3.016" y="-3.016" width="116.477" height="119.417" style="fill:#df006a;fill-rule:nonzero;"/></g><g><clipPath id="_clip3"><path d="M47.043,31.215c0,0 17.228,9.857 7.384,40.25c0,0 13.946,-9.036 29.534,-3.285c15.587,5.75 27.893,5.75 27.893,5.75c0,0 7.07,-18.701 -3.281,-39.43c-1.641,-3.285 11.485,-22.178 13.947,-22.178l-30.355,0l7.383,-12.322l-32.815,0l-19.69,31.215Z"/></clipPath><g clip-path="url(#_clip3)"><g><rect x="47.043" y="0" width="72.374" height="74.183" style="fill:#ff9a00;fill-rule:nonzero;"/><g><clipPath id="_clip4"><path d="M75.757,34.5c0,0 12.306,7.393 9.024,34.501c0,0 14.767,5.75 27.894,5.75c0,0 6.881,-22.933 -4.102,-39.429c-1.641,-2.464 9.024,-20.536 13.126,-22.179l-31.175,0l-14.767,21.357Z"/></clipPath><g clip-path="url(#_clip4)"><g><rect x="75.39" y="12.665" width="44.027" height="61.518" style="fill:#fee200;fill-rule:nonzero;"/><g><clipPath id="_clip5"><path d="M64.271,50.929l47.583,-50.929c0,0 -10.783,-0.127 -12.306,0l-25.432,34.5l-9.845,16.429Z"/></clipPath><g clip-path="url(#_clip5)"><clipPath id="_clip6"><rect x="75.39" y="12.665" width="44.027" height="61.518"/></clipPath><g clip-path="url(#_clip6)"><rect x="61.256" y="-3.072" width="53.614" height="57.017" style="fill:#c25500;fill-opacity:0.25098;fill-rule:nonzero;"/></g></g></g></g></g></g></g></g></g></g></g></g><clipPath id="_clip7"><path d="M146.408,75.657c0,0 6.736,9.116 20.309,9.116c10.658,0 18.701,-5.941 18.701,-15.16c0,-17.312 -27.749,-15.16 -27.749,-24.994c0,-4.098 3.72,-6.146 9.451,-6.146c3.116,0 7.641,1.331 7.641,4.404l0,2.561l8.747,0l0,-4.917c0,-7.887 -10.557,-10.038 -16.69,-10.038c-10.356,0 -18.902,4.609 -18.902,14.546c0,16.696 27.749,15.672 27.749,24.994c0,4.507 -4.122,6.658 -8.847,6.658c-9.35,0 -15.383,-7.683 -15.383,-7.683l-5.027,6.659Zm48.297,-10.756c0,13.726 5.831,19.872 17.293,19.872c10.054,0 16.589,-6.76 18.7,-11.882l0.201,0c0,0 -0.1,1.332 -0.1,2.971l0,1.946c0,3.687 2.111,5.736 6.434,5.736l9.35,0l0,-8.502l-4.122,0c-1.407,0 -2.212,-0.717 -2.212,-2.254l0,-41.076l-9.752,0l0,24.277c0,10.244 -6.133,19.565 -16.589,19.565c-8.043,0 -9.451,-5.736 -9.451,-12.907l0,-24.584c0,-4.405 -1.91,-6.351 -6.535,-6.351l-9.551,0l0,8.502l4.122,0c1.407,0 2.212,0.717 2.212,2.254l0,22.433Zm59.657,18.643l9.753,0l0,-24.277c0,-2.561 0.201,-4.917 0.905,-6.966c2.01,-7.477 8.244,-12.701 16.086,-12.701c8.144,0 9.551,5.736 9.551,13.009l0,24.379c0,4.61 1.911,6.556 6.435,6.556l9.652,0l0,-8.502l-4.122,0c-1.408,0 -2.212,-0.717 -2.212,-2.254l0,-22.433c0,-13.214 -5.429,-19.872 -17.494,-19.872c-11.06,0 -17.092,7.375 -19.103,11.882l-0.201,0c0,0 0.201,-1.331 0.201,-2.97l0,-1.947c0,-3.79 -2.111,-5.736 -6.434,-5.736l-9.351,0l0,8.502l4.122,0c1.408,0 2.212,0.717 2.212,2.254l0,41.076Zm54.53,-7.58c0,0 5.832,8.809 18.5,8.809c9.551,0 16.89,-5.634 16.89,-13.828c0,-16.902 -28.955,-13.727 -28.955,-26.838c0,-5.839 4.826,-8.81 12.97,-8.81c3.518,0 9.752,1.639 9.752,5.941l0,2.459l4.223,0l0,-3.893c0,-6.76 -9.853,-8.707 -14.177,-8.707c-9.953,0 -17.192,4.508 -17.192,13.317c0,16.492 28.956,13.624 28.956,26.531c0,6.351 -5.932,9.629 -12.367,9.629c-10.355,0 -15.584,-7.786 -15.584,-7.786l-3.016,3.176Zm41.259,-17.926c0,16.287 11.763,26.735 25.939,26.735c10.859,0 17.896,-7.068 17.896,-7.068l-2.312,-3.585c0,0 -5.932,6.454 -15.584,6.454c-11.662,0 -21.515,-8.503 -21.515,-23.356l40.316,0c0,0 0.201,-1.639 0.201,-2.765c0,-12.395 -6.836,-23.356 -20.51,-23.356c-12.869,0 -24.431,9.629 -24.431,26.941Zm4.725,-4.815c1.81,-11.985 10.356,-18.131 19.606,-18.131c8.344,0 15.684,5.634 16.187,18.131l-35.793,0Zm51.514,30.321l4.223,0l0,-22.126c0,-3.38 0.402,-7.17 1.508,-10.755c2.212,-7.581 7.138,-14.341 14.98,-14.341c1.106,0 2.313,0.204 2.313,0.204l0,-4.302c0,0 -1.408,-0.307 -2.916,-0.307c-7.943,0 -13.372,5.941 -15.885,13.829l-0.201,0c0,0 0.201,-1.844 0.201,-4.2l0,-3.585c0,-3.893 -1.709,-5.634 -5.832,-5.634l-4.926,0l0,3.892l4.323,0c1.408,0 2.212,0.717 2.212,2.254l0,45.071Zm31.205,-64.227l4.625,0l0,-7.477l-4.625,0l0,7.477Zm0.603,58.286c0,4.2 1.709,5.941 5.831,5.941l4.927,0l0,-3.892l-4.323,0c-1.408,0 -2.212,-0.717 -2.212,-2.254l0,-39.13c0,-4.2 -1.71,-5.941 -5.832,-5.941l-4.926,0l0,3.892l4.323,0c1.408,0 2.212,0.717 2.212,2.254l0,39.13Zm15.018,-19.565c0,16.287 11.763,26.735 25.939,26.735c10.858,0 17.896,-7.068 17.896,-7.068l-2.312,-3.585c0,0 -5.932,6.454 -15.584,6.454c-11.663,0 -21.516,-8.503 -21.516,-23.356l40.317,0c0,0 0.201,-1.639 0.201,-2.765c0,-12.395 -6.837,-23.356 -20.51,-23.356c-12.869,0 -24.431,9.629 -24.431,26.941Zm4.725,-4.815c1.81,-11.985 10.356,-18.131 19.605,-18.131c8.345,0 15.685,5.634 16.187,18.131l-35.792,0Zm45.683,22.741c0,0 5.831,8.809 18.499,8.809c9.551,0 16.891,-5.634 16.891,-13.828c0,-16.902 -28.956,-13.727 -28.956,-26.838c0,-5.839 4.826,-8.81 12.97,-8.81c3.519,0 9.752,1.639 9.752,5.941l0,2.459l4.223,0l0,-3.893c0,-6.76 -9.853,-8.707 -14.176,-8.707c-9.954,0 -17.193,4.508 -17.193,13.317c0,16.492 28.956,13.624 28.956,26.531c0,6.351 -5.932,9.629 -12.367,9.629c-10.355,0 -15.583,-7.786 -15.583,-7.786l-3.016,3.176Zm45.783,-11.37c0,17.311 12.969,19.36 19.404,19.36c2.111,0 3.418,-0.205 3.418,-0.205l0,-8.809c0,0 -0.905,0.204 -2.312,0.204c-3.72,0 -10.758,-1.331 -10.758,-11.677l0,-23.765l12.165,0l0,-7.99l-12.165,0l0,-14.238l-9.551,0l0,14.238l-6.837,0l0,7.99l6.636,0l0,24.892Zm32.008,18.95l9.753,0l0,-21.204c0,-3.175 0.302,-6.351 1.206,-9.321c2.313,-7.683 8.044,-12.19 14.277,-12.19c1.609,0 2.916,0.307 2.916,0.307l0,-9.834c0,0 -1.307,-0.205 -2.614,-0.205c-7.842,0 -13.674,5.942 -16.087,13.522l-0.201,0c0,0 0.201,-1.537 0.201,-3.585l0,-3.278c0,-4.2 -2.111,-6.044 -6.535,-6.044l-9.25,0l0,8.502l4.123,0c1.407,0 2.211,0.717 2.211,2.254l0,41.076Zm27.988,-14.546c0,10.346 8.546,15.775 17.293,15.775c12.165,0 16.187,-10.243 16.187,-10.243l0.201,0c0,0 -0.201,1.332 -0.201,3.073c0,3.688 1.809,5.941 6.334,5.941l9.149,0l0,-8.502l-4.122,0c-1.408,0 -2.212,-0.717 -2.212,-2.254l0,-22.023c0,-11.473 -4.424,-20.282 -20.912,-20.282c-4.927,0 -17.595,1.229 -17.595,9.731l0,5.122l9.149,0l0,-2.971c0,-3.38 5.932,-3.995 8.345,-3.995c7.943,0 11.26,3.278 11.26,12.395l0,0.512l-2.211,0c-8.546,0 -30.665,1.024 -30.665,17.721Zm9.853,-0.512c0,-9.526 13.271,-9.936 20.611,-9.936l2.513,0l0,1.741c0,7.683 -5.329,16.492 -13.573,16.492c-6.434,0 -9.551,-4.097 -9.551,-8.297Zm58.149,15.058l11.261,0l15.483,-41.281c0.603,-1.537 1.609,-2.049 3.318,-2.049l1.005,0l0,-8.502l-4.725,0c-4.424,0 -6.234,1.127 -7.742,5.224l-10.858,29.809c-1.006,2.868 -1.81,6.76 -1.81,6.76l-0.201,0c0,0 -0.804,-3.892 -1.81,-6.76l-10.959,-29.809c-1.508,-4.097 -3.217,-5.224 -7.741,-5.224l-5.027,0l0,8.502l1.005,0c1.609,0 2.514,0.512 3.117,2.049l15.684,41.281Zm32.009,-25.916c0,15.365 10.959,27.145 27.045,27.145c12.065,0 19.606,-7.58 19.606,-7.58l-4.223,-7.068c0,0 -6.133,6.044 -14.88,6.044c-9.048,0 -16.891,-6.249 -17.494,-17.312l37.1,0c0,0 0.301,-2.765 0.301,-4.097c0,-13.419 -7.641,-24.277 -21.918,-24.277c-14.477,0 -25.537,10.653 -25.537,27.145Zm10.456,-6.044c1.508,-8.604 7.541,-13.214 14.981,-13.214c6.334,0 11.662,4.61 11.964,13.214l-26.945,0Zm46.789,25.404c0,4.61 1.91,6.556 6.434,6.556l9.652,0l0,-8.502l-4.122,0c-1.408,0 -2.212,-0.717 -2.212,-2.254l0,-55.007c0,-4.61 -1.91,-6.556 -6.434,-6.556l-9.652,0l0,8.502l4.122,0c1.407,0 2.212,0.717 2.212,2.254l0,55.007Z"/></clipPath><g clip-path="url(#_clip7)"><rect x="141.408" y="6.225" width="646.337" height="83.548" style="fill:#5c5c5c;fill-rule:nonzero;"/></g></g></svg>